<?xml version="1.0" standalone="no"?>
<!DOCTYPE svg PUBLIC "-//W3C//DTD SVG 20010904//EN"
 "http://www.w3.org/TR/2001/REC-SVG-20010904/DTD/svg10.dtd">
<svg version="1.0" xmlns="http://www.w3.org/2000/svg"
 width="640.000000pt" height="843.000000pt" viewBox="0 0 640.000000 843.000000"
 preserveAspectRatio="xMidYMid meet">

<g transform="translate(0.000000,843.000000) scale(0.100000,-0.100000)"
fill="#000000" stroke="none">
<path d="M2584 8062 c-450 -270 -714 -733 -714 -1251 l0 -115 -36 35 c-56 53
-149 172 -193 248 -80 136 -110 235 -120 391 l-7 115 -61 -125 c-34 -69 -72
-162 -86 -206 -67 -213 -59 -430 25 -694 40 -125 77 -189 177 -306 81 -94 82
-96 41 -73 -62 35 -158 117 -216 185 -99 116 -161 230 -210 385 -34 110 -35
112 -28 59 13 -102 93 -291 166 -391 68 -95 261 -253 345 -285 27 -10 58 -26
71 -35 l23 -17 -38 -13 c-116 -38 -254 -189 -315 -345 -44 -114 -78 -364 -49
-364 5 0 21 20 35 45 79 133 234 224 413 240 90 8 99 1 72 -55 -43 -88 -61
-156 -66 -246 l-6 -92 -32 -15 c-32 -15 -43 -14 -240 29 -113 24 -215 49 -225
54 -44 24 -132 -2 -166 -48 -11 -15 -16 -14 -53 3 -37 16 -50 17 -115 7 -154
-24 -373 -112 -434 -175 -18 -18 -42 -58 -53 -88 -22 -57 -46 -206 -34 -217 3
-4 46 -7 94 -7 86 0 89 1 146 40 74 52 85 58 175 99 176 80 231 87 400 52 209
-43 283 -95 391 -274 60 -99 74 -140 88 -251 12 -89 57 -184 118 -245 32 -33
48 -62 69 -125 15 -45 43 -108 62 -139 19 -31 47 -98 63 -147 45 -142 123
-213 258 -232 l54 -8 13 -60 c23 -113 34 -143 74 -191 38 -46 46 -69 41 -122
-1 -13 5 -35 13 -48 9 -13 16 -31 16 -40 0 -28 -46 -99 -74 -113 -57 -31 -79
-143 -52 -270 19 -88 51 -139 109 -171 23 -13 44 -25 46 -26 2 -2 -3 -14 -12
-27 -24 -38 -85 -227 -92 -289 l-7 -58 79 0 c90 0 207 -26 279 -63 l48 -24 70
59 c38 32 89 71 114 86 l44 27 -7 131 -7 131 64 23 c178 65 258 144 258 259 0
19 12 53 28 80 85 139 122 265 122 423 0 61 -7 135 -15 173 -9 36 -13 70 -10
75 4 6 37 10 74 10 62 0 148 12 194 26 15 5 17 -2 17 -45 0 -60 22 -81 87 -81
24 0 43 -1 43 -3 0 -2 -8 -21 -19 -43 -23 -48 -56 -152 -50 -158 2 -2 42 4 89
15 47 10 104 19 127 19 71 0 195 -28 258 -60 54 -27 61 -28 70 -13 31 50 76
101 112 128 23 16 42 33 42 36 1 4 -14 13 -31 20 -29 11 -116 87 -107 92 2 1
35 18 74 37 83 43 102 71 117 172 7 48 20 87 39 116 69 109 60 306 -18 410
-38 51 -128 99 -198 107 -11 1 -22 3 -25 4 -8 2 252 154 306 180 l51 23 6 92
c10 142 34 222 115 379 7 13 -37 7 -86 -11 -93 -36 -176 -104 -382 -312 -205
-207 -205 -208 -281 -235 l-77 -27 -102 26 c-57 14 -118 26 -136 26 -19 0 -34
3 -34 8 0 10 213 257 310 358 l77 82 45 -5 c56 -6 85 8 104 52 32 77 63 108
157 158 155 81 157 86 157 322 0 135 -4 175 -24 255 -33 129 -45 159 -56 140
-6 -8 -10 -26 -10 -40 0 -78 -90 -300 -149 -371 l-27 -32 -33 33 c-31 32 -34
33 -96 27 -37 -4 -67 -2 -70 3 -9 15 -82 12 -114 -5 -27 -13 -71 -85 -71 -114
0 -25 -71 -44 -147 -38 -56 4 -73 2 -77 -9 -7 -17 -55 -19 -60 -1 -2 6 -13 52
-24 101 l-22 88 33 47 c17 25 39 52 47 59 31 26 201 103 264 119 36 10 66 21
66 26 0 26 -121 32 -207 10 -44 -10 -23 17 70 90 114 92 165 122 267 157 44
15 83 30 86 33 24 24 -239 28 -323 4 -66 -18 -70 -3 -13 39 23 16 58 42 78 57
111 86 281 161 400 176 l67 8 -61 2 c-105 2 -227 -48 -403 -164 l-81 -54 42
62 c130 187 397 386 656 488 52 20 90 39 84 43 -28 17 -149 36 -238 36 -170 0
-342 -44 -516 -131 -43 -22 -80 -39 -82 -39 -3 0 8 28 24 63 67 143 95 355 70
541 -7 53 -16 96 -20 96 -4 0 -11 -17 -15 -37 -25 -140 -155 -340 -286 -444
l-40 -32 50 94 c53 99 89 180 75 166 -5 -5 -45 -72 -90 -150 -45 -77 -85 -142
-90 -144 -5 -1 -25 25 -44 59 -61 106 -167 183 -288 209 -32 7 -58 13 -59 14
-7 4 39 129 67 185 84 166 194 280 354 366 33 19 54 34 45 34 -22 0 -121 -52
-173 -91 -99 -76 -204 -213 -261 -344 l-35 -80 0 83 c0 277 104 584 272 800
27 35 48 65 46 67 -9 9 -129 -30 -212 -69 -230 -108 -459 -349 -606 -638 -25
-49 -47 -88 -50 -88 -8 0 -37 120 -55 224 -20 118 -20 368 0 477 17 88 57 223
82 272 8 16 13 31 10 33 -2 2 -39 -17 -83 -44z m515 -1551 c64 -34 148 -122
178 -187 39 -85 41 -208 7 -344 -6 -21 3 -16 50 30 31 30 68 72 83 93 14 20
28 35 30 33 3 -2 -2 -41 -11 -87 -14 -74 -15 -114 -1 -78 2 8 12 32 20 54 l15
40 -5 -55 c-3 -30 -13 -77 -21 -103 -9 -27 -14 -51 -11 -53 3 -3 23 4 46 15
22 12 43 21 47 21 4 0 5 -21 2 -47 -3 -27 -2 -59 2 -73 6 -21 8 -17 14 25 10
67 25 103 50 120 85 61 163 -72 154 -263 -3 -77 -9 -100 -37 -155 -18 -36 -50
-82 -72 -103 -39 -38 -39 -38 -39 -12 0 14 14 52 31 84 27 52 30 67 27 123 -4
56 -8 67 -35 91 -17 15 -36 29 -43 32 -7 2 -9 13 -5 31 l7 27 30 -25 c35 -29
49 -32 46 -7 -1 9 2 35 6 56 8 35 6 42 -13 58 -17 13 -27 15 -42 8 -44 -24
-71 -133 -46 -192 11 -25 15 -80 16 -202 l1 -167 -36 -57 c-103 -161 -223
-290 -309 -332 -81 -39 -414 -66 -506 -40 -53 15 -120 67 -179 140 -29 36 -59
72 -67 80 -13 13 -14 13 -11 -5 3 -16 -4 -22 -32 -31 -19 -6 -41 -9 -47 -6
-23 8 -53 69 -53 108 0 40 18 86 21 54 1 -8 0 -24 -1 -35 -2 -16 0 -17 14 -6
26 22 19 44 -34 115 l-51 66 35 0 c68 0 69 9 11 56 -57 47 -123 128 -168 205
-37 63 -34 77 8 40 47 -41 123 -79 176 -87 l44 -7 -51 56 c-83 93 -164 285
-164 387 l0 35 34 -61 c29 -52 34 -69 33 -126 -1 -67 8 -89 45 -109 16 -9 18
-7 12 16 -5 20 -3 24 10 19 11 -4 16 -1 16 10 0 23 4 21 63 -26 50 -39 154
-95 162 -86 3 2 -8 35 -24 74 -16 38 -32 95 -36 128 l-8 58 44 -7 c24 -4 61
-16 81 -26 21 -11 41 -19 45 -19 15 0 -111 119 -139 131 -21 9 -28 18 -28 39
0 43 36 171 68 241 l29 64 0 -110 c0 -114 22 -214 63 -295 34 -65 50 -75 24
-15 -46 106 -64 198 -63 319 1 152 11 182 26 80 14 -91 50 -186 100 -261 33
-50 165 -183 182 -183 4 0 -1 26 -12 58 -25 69 -28 211 -8 317 12 62 68 231
92 277 10 19 19 16 108 -31z m-859 -1158 l32 -26 -34 -11 c-31 -11 -33 -14
-32 -57 0 -27 8 -58 18 -74 21 -33 30 -28 16 9 -5 15 -10 45 -10 67 0 42 12
49 45 26 16 -12 16 -18 7 -47 -17 -47 -15 -56 8 -35 11 10 20 27 20 39 0 14 3
17 10 10 8 -8 7 -25 -1 -55 -15 -57 -7 -89 33 -134 41 -47 77 -65 131 -65 30
0 49 -6 61 -19 17 -18 16 -19 -20 -31 -72 -24 -178 8 -254 76 -96 86 -152 212
-130 292 17 66 50 77 100 35z m1925 -25 c29 -26 54 -122 40 -154 -8 -17 -9
-16 -13 9 -3 22 -8 27 -33 27 -17 0 -32 -6 -35 -15 -9 -23 -22 -18 -40 18 -10
17 -19 27 -21 20 -7 -21 26 -83 51 -94 15 -7 26 -22 28 -40 4 -24 -5 -37 -53
-85 l-58 -58 -11 28 c-5 15 -10 38 -10 52 l0 24 21 -21 c33 -33 33 -16 0 37
-24 37 -31 59 -31 98 1 80 43 156 95 169 37 9 44 7 70 -15z m159 -19 c14 -11
26 -28 26 -37 0 -24 -71 -92 -95 -92 -19 0 -24 10 -37 70 -13 63 -13 70 1 73
40 11 80 6 105 -14z m-2952 -170 c10 -19 18 -50 17 -69 -1 -32 -2 -30 -14 18
-7 31 -24 66 -41 85 -27 29 -28 30 -4 16 14 -9 33 -31 42 -50z m2800 39 c-6
-6 -16 -7 -22 -3 -9 6 -9 9 1 16 17 10 34 0 21 -13z m-2547 -50 c99 -22 184
-45 189 -49 25 -22 -16 -18 -181 20 -236 55 -253 60 -253 72 0 12 -5 13 245
-43z m2587 0 c-23 -23 -35 -29 -43 -21 -8 8 0 16 28 30 52 28 52 27 15 -9z
m-467 -15 c-20 -158 -12 -208 53 -335 2 -5 -8 -8 -22 -8 -14 0 -26 6 -26 13 0
7 -14 30 -31 51 l-32 38 6 91 c11 155 17 187 38 187 16 0 18 -6 14 -37z
m-1567 -13 c11 -17 10 -20 -7 -20 -22 0 -35 15 -26 30 9 15 19 12 33 -10z
m1278 -90 c-20 -78 -80 -217 -109 -253 l-22 -28 -135 39 c-239 70 -246 75
-115 86 155 13 215 43 324 164 36 40 67 68 69 63 2 -6 -4 -38 -12 -71z m-1302
45 c20 -31 20 -35 -3 -35 -11 0 -21 -6 -24 -12 -2 -7 -7 2 -11 19 -12 54 10
71 38 28z m351 -25 c4 -6 -9 -10 -32 -10 -28 0 -34 3 -23 10 20 13 47 13 55 0z
m-330 -30 c3 -5 -1 -10 -9 -10 -9 0 -16 5 -16 10 0 6 4 10 9 10 6 0 13 -4 16
-10z m-5 -36 c0 -3 -9 -17 -20 -31 l-20 -26 0 25 c0 14 3 28 7 31 8 9 33 9 33
1z m215 -25 c28 -10 68 -18 91 -19 65 0 167 -95 200 -187 26 -74 11 -207 -33
-300 l-16 -34 -22 69 c-12 39 -33 85 -45 102 -24 34 -99 74 -160 84 -27 5 -18
-1 36 -27 45 -22 81 -47 98 -70 30 -39 66 -125 66 -157 0 -17 -5 -17 -67 13
-64 30 -74 32 -183 32 -106 0 -119 -2 -173 -28 -118 -58 -203 -176 -230 -318
l-14 -74 -12 50 c-7 28 -15 97 -18 155 -6 119 8 189 59 299 17 36 32 79 34 95
8 58 64 155 128 218 66 67 171 132 196 121 8 -3 38 -14 65 -24z m1955 -24 c-7
-8 -20 -15 -29 -15 -12 1 -11 5 8 21 26 22 41 18 21 -6z m-26 -47 c-19 -34
-40 -48 -71 -48 -18 0 -33 3 -33 8 0 10 41 36 70 43 39 10 42 10 34 -3z m-659
-43 c14 -13 25 -33 25 -43 0 -11 9 -40 20 -65 20 -44 18 -77 -3 -77 -6 0 -19
-7 -29 -17 -10 -9 -18 -11 -18 -6 0 6 7 13 15 17 10 3 15 19 15 46 0 32 -4 40
-19 40 -10 0 -24 -7 -31 -15 -7 -8 -17 -15 -24 -15 -6 0 2 11 17 25 33 32 38
85 7 85 -10 0 -23 7 -28 16 -7 12 -16 14 -42 7 -38 -10 -48 -32 -44 -102 2
-52 16 -70 39 -51 9 8 15 8 15 2 0 -6 -9 -17 -21 -26 -16 -11 -20 -21 -15 -43
3 -15 1 -35 -4 -43 -9 -13 -12 -12 -25 5 -52 67 -42 190 20 252 42 42 93 45
130 8z m-777 3 c-6 -17 -76 -18 -89 -1 -9 11 -2 13 41 13 36 0 50 -4 48 -12z
m121 -141 c-9 -16 -8 -18 8 -13 14 4 33 -7 69 -40 27 -26 72 -62 101 -80 42
-28 50 -38 46 -56 -4 -22 -4 -22 11 -4 15 19 18 19 51 3 36 -17 44 -34 23 -55
-16 -16 -29 -15 -22 2 4 10 -1 12 -18 9 -29 -6 -150 62 -211 118 -95 88 -157
155 -152 167 2 6 -3 12 -13 12 -9 0 -24 5 -32 10 -12 7 -11 13 10 35 l24 25
57 -56 c49 -49 56 -60 48 -77z m-1010 52 c23 -19 23 -20 8 -72 -8 -28 -18 -63
-21 -77 -8 -33 -32 -64 -44 -56 -5 3 -13 29 -16 58 -4 29 -17 79 -30 111 l-24
57 52 0 c36 -1 58 -7 75 -21z m1851 6 c7 -8 16 -12 21 -9 5 3 9 3 9 0 0 -12
-65 -136 -71 -136 -4 0 -10 11 -13 25 -4 14 -16 35 -27 46 -36 36 -6 82 57 88
6 1 17 -6 24 -14z m-463 -63 c8 -5 11 -39 9 -107 -2 -104 -17 -154 -35 -125
-7 10 -6 17 2 22 9 6 9 8 0 8 -7 0 -17 9 -23 20 -9 17 -7 22 12 30 l23 9 -25
1 c-22 1 -23 2 -8 13 15 12 15 14 -4 26 -17 10 -19 19 -13 49 10 55 31 74 62
54z m383 -52 c9 -16 8 -20 -5 -20 -8 0 -15 9 -15 20 0 11 2 20 5 20 2 0 9 -9
15 -20z m-134 -17 c4 -16 2 -36 -7 -52 -13 -23 -129 -124 -135 -118 -8 8 10
46 19 40 6 -4 8 0 5 9 -9 22 51 93 65 79 19 -19 29 -12 13 11 -11 15 -12 26
-5 40 14 26 38 22 45 -9z m54 -33 c-33 -26 -52 -25 -21 0 13 11 28 20 35 20 6
0 0 -9 -14 -20z m74 -39 c8 -12 -39 -61 -59 -61 -20 0 -19 25 3 49 18 21 47
27 56 12z m-107 -73 c-3 -8 -6 -5 -6 6 -1 11 2 17 5 13 3 -3 4 -12 1 -19z
m-200 -20 c-3 -7 -5 -2 -5 12 0 14 2 19 5 13 2 -7 2 -19 0 -25z m133 -3 c0 -8
-6 -15 -12 -15 -7 0 -24 -3 -37 -7 -30 -8 -20 14 13 27 31 13 36 12 36 -5z
m-179 -22 c-12 -20 -14 -14 -5 12 4 9 9 14 11 11 3 -2 0 -13 -6 -23z m-61 9
c0 -13 -12 -22 -22 -16 -10 6 -1 24 13 24 5 0 9 -4 9 -8z m-767 -128 c36 -12
62 -33 113 -89 94 -105 97 -110 90 -158 -4 -23 -16 -56 -28 -75 -19 -31 -24
-34 -58 -29 -20 2 -77 24 -127 47 -51 23 -97 40 -105 37 -9 -3 -7 -7 7 -12 44
-16 200 -98 207 -108 12 -19 9 -100 -5 -127 -34 -68 -157 -78 -271 -21 -35 17
-74 30 -87 30 -20 -1 -20 -2 -5 -6 10 -3 47 -20 81 -39 40 -22 84 -37 121 -42
58 -7 59 -8 56 -37 -2 -17 -11 -43 -21 -60 l-18 -30 -134 2 c-102 1 -123 -1
-89 -8 25 -5 64 -13 88 -19 23 -5 58 -10 77 -10 27 0 33 -3 29 -15 -15 -37
-111 -59 -189 -43 -101 21 -165 72 -209 168 -45 97 -51 145 -32 256 30 180
114 306 247 373 53 27 73 31 139 31 44 0 96 -7 123 -16z m213 -113 c37 -23 73
-78 80 -123 4 -22 -4 -59 -21 -108 -31 -86 -31 -85 -67 -94 -26 -6 -28 -4 -28
22 0 17 9 37 21 48 29 26 49 75 49 122 0 29 -8 48 -33 78 -60 72 -61 74 -46
74 8 0 28 -9 45 -19z m14 -347 c0 -13 -21 -44 -30 -44 -14 0 -12 24 2 38 13
13 28 16 28 6z m-50 -64 c17 -11 -23 -32 -44 -24 -14 5 -14 9 2 29 10 13 20
19 23 13 4 -6 12 -14 19 -18z m1674 -444 c34 -30 33 -36 -5 -36 -43 0 -95 -27
-127 -65 -22 -27 -36 -34 -83 -39 -67 -8 -176 8 -241 36 -26 11 -48 22 -48 25
0 2 9 22 21 44 17 34 24 40 42 35 89 -25 123 -28 210 -16 50 7 109 18 131 25
59 19 72 18 100 -9z m-1780 -965 c41 -43 120 -74 186 -74 56 0 148 32 171 59
23 28 29 12 29 -81 0 -52 -4 -95 -8 -95 -5 0 -33 14 -64 30 -109 59 -232 60
-342 2 -28 -15 -55 -29 -60 -31 -5 -2 -6 17 -2 45 7 58 44 174 55 174 4 0 20
-13 35 -29z"/>
<path d="M3003 6304 c-72 -36 -121 -149 -107 -248 12 -91 20 -96 32 -19 5 40
18 83 29 97 29 40 82 59 154 55 l64 -4 17 35 c17 34 18 34 11 5 -10 -43 -9
-59 1 -65 11 -6 40 76 33 94 -3 7 -29 25 -58 40 -61 30 -127 34 -176 10z"/>
<path d="M3150 5869 c-49 -22 -85 -52 -103 -84 -7 -14 2 -9 26 12 86 76 167
88 239 37 92 -65 114 -179 50 -269 -34 -49 -29 -59 10 -20 29 28 48 86 48 141
-1 86 -70 171 -156 193 -57 14 -61 14 -114 -10z"/>
<path d="M2615 5621 c-97 -44 -139 -157 -100 -272 26 -76 93 -129 162 -129 57
0 56 17 -1 22 -66 5 -101 28 -129 82 -61 116 -20 238 98 292 29 13 42 23 30
23 -11 0 -38 -8 -60 -18z"/>
<path d="M3048 5615 c-14 -32 10 -89 41 -98 30 -7 61 19 61 54 0 61 -79 95
-102 44z"/>
<path d="M3375 5520 c-51 -30 -90 -68 -80 -78 3 -3 12 4 21 16 8 12 20 20 25
16 6 -3 18 4 26 16 9 12 18 18 22 13 3 -6 26 3 51 19 43 28 44 28 15 27 -17 0
-52 -13 -80 -29z"/>
<path d="M2797 5522 c-34 -37 -9 -112 37 -112 48 0 67 70 31 110 -23 25 -47
26 -68 2z"/>
<path d="M3305 5411 c-185 -114 -319 -181 -458 -226 -126 -42 -167 -66 -167
-99 0 -21 38 -74 74 -101 70 -53 156 -67 268 -44 116 24 343 158 425 252 30
34 53 90 53 129 0 72 -40 158 -72 158 -7 0 -62 -31 -123 -69z m141 34 c4 -8 4
-26 0 -38 -7 -30 -53 -80 -66 -72 -5 3 -17 -6 -26 -20 -9 -14 -22 -24 -28 -23
-6 1 -33 -13 -61 -31 -122 -80 -335 -168 -420 -175 -24 -2 -47 -6 -51 -8 -5
-3 -26 -8 -47 -12 -30 -6 -39 -4 -44 10 -8 22 8 46 38 55 118 34 236 77 301
110 86 43 272 153 328 193 40 29 68 33 76 11z m24 -154 c0 -74 -103 -169 -280
-260 -176 -90 -274 -106 -366 -60 -39 19 -50 30 -52 51 -3 22 2 30 23 38 32
12 36 12 55 0 12 -7 11 -12 -5 -31 -20 -22 -20 -22 1 -11 16 9 26 8 43 -5 45
-31 118 -14 276 65 78 39 157 83 174 98 32 27 77 104 60 104 -19 0 -8 32 19
55 25 22 28 23 40 8 6 -9 12 -33 12 -52z"/>
<path d="M3026 5351 c-10 -11 -16 -26 -14 -33 3 -8 9 -5 17 10 8 15 21 22 42
22 18 0 28 4 24 10 -10 17 -51 11 -69 -9z"/>
<path d="M2689 5196 c-5 -5 -47 -15 -87 -21 -30 -4 -62 -33 -62 -54 1 -11 8
-7 25 14 23 28 24 29 18 5 l-6 -25 27 25 c24 21 26 22 20 5 -7 -19 -6 -19 17
1 13 11 35 28 49 37 13 10 20 17 14 17 -6 0 -13 -2 -15 -4z"/>
<path d="M2410 4136 c0 -19 55 -58 76 -54 11 2 2 13 -30 36 -33 24 -46 29 -46
18z"/>
<path d="M2256 3899 c27 -30 54 -43 66 -31 6 6 -3 17 -25 31 -45 28 -66 28
-41 0z"/>
<path d="M2210 3672 c0 -5 7 -13 16 -16 24 -9 54 -7 54 4 0 6 -6 10 -12 10 -7
0 -23 3 -35 6 -13 4 -23 2 -23 -4z"/>
<path d="M1834 5496 c-77 -34 -150 -133 -168 -226 -5 -25 4 -12 33 46 38 76
85 131 151 176 30 21 25 22 -16 4z"/>
</g>
</svg>
