<?xml version="1.0" standalone="no"?>
<!DOCTYPE svg PUBLIC "-//W3C//DTD SVG 20010904//EN"
 "http://www.w3.org/TR/2001/REC-SVG-20010904/DTD/svg10.dtd">
<svg version="1.0" xmlns="http://www.w3.org/2000/svg"
 width="924.000000pt" height="940.000000pt" viewBox="0 0 924.000000 940.000000"
 preserveAspectRatio="xMidYMid meet">

<g transform="translate(0.000000,940.000000) scale(0.100000,-0.100000)"
fill="#000000" stroke="none">
<path d="M5035 9224 c-220 -145 -605 -539 -760 -778 -108 -166 -187 -350 -235
-547 -34 -141 -76 -455 -90 -684 -15 -248 -21 -303 -35 -322 -13 -17 -15 -16
-44 11 -25 24 -35 48 -60 155 -16 69 -42 195 -57 279 -19 108 -31 152 -41 152
-7 0 -16 -13 -19 -30 -4 -16 -12 -30 -19 -30 -19 0 -25 -58 -25 -240 0 -298
24 -459 126 -832 31 -112 58 -227 61 -256 7 -64 0 -74 -136 -175 -52 -38 -139
-110 -193 -159 -105 -96 -133 -110 -188 -95 -41 10 -293 211 -511 406 -181
161 -508 504 -829 871 -179 205 -220 246 -230 230 -5 -8 -10 -21 -10 -27 0 -7
-7 -13 -15 -13 -8 0 -18 -12 -22 -27 -5 -16 -8 -179 -7 -363 0 -365 7 -434 74
-765 48 -236 41 -282 -47 -303 -287 -67 -404 -106 -608 -207 -290 -142 -938
-557 -993 -637 -27 -38 11 -59 318 -176 326 -124 670 -272 880 -380 280 -143
490 -286 490 -332 0 -47 -92 -52 -272 -14 -122 25 -421 98 -450 109 -11 4 -21
-4 -32 -26 -9 -18 -16 -35 -16 -40 0 -13 113 -154 229 -284 310 -348 616 -664
814 -838 45 -40 77 -76 77 -87 0 -30 -37 -58 -109 -81 -139 -45 -323 -123
-332 -142 -22 -39 -26 -38 346 -147 77 -23 243 -80 370 -127 547 -202 595
-217 790 -233 70 -5 139 -16 154 -23 33 -15 39 -54 16 -114 -26 -67 -57 -97
-158 -151 -211 -114 -431 -312 -619 -558 -113 -147 -133 -164 -283 -244 -115
-62 -222 -131 -366 -237 -163 -119 -192 -133 -295 -133 -336 -1 -770 -211
-1027 -499 l-68 -76 40 -3 c38 -3 43 0 148 107 134 135 297 245 476 321 202
86 245 95 442 93 151 -1 299 -13 312 -27 2 -2 0 -13 -6 -24 -8 -15 -25 -20
-83 -26 -40 -4 -102 -13 -138 -20 l-65 -14 75 7 c126 10 530 6 607 -7 40 -7
98 -22 129 -33 79 -30 235 -137 392 -269 146 -123 200 -146 77 -33 -76 70 -77
72 -51 79 63 15 537 -16 755 -51 112 -18 311 -64 311 -72 0 -3 -8 -12 -17 -19
-17 -12 -17 -13 3 -14 12 0 73 24 135 54 202 97 439 167 744 220 235 41 357
49 624 43 340 -7 449 -30 681 -139 235 -112 287 -126 328 -91 11 10 34 50 50
89 71 170 213 339 431 513 204 162 311 206 591 246 91 12 93 13 35 14 -67 1
-251 -22 -304 -38 -19 -6 -37 -9 -39 -6 -5 5 160 186 216 237 27 25 59 40 108
53 91 24 101 35 32 35 -31 0 -58 4 -60 10 -6 17 -179 40 -305 40 l-123 0 -73
69 c-93 89 -124 114 -131 102 -4 -5 15 -28 41 -50 25 -23 44 -43 41 -46 -2 -2
-29 20 -58 50 -30 30 -58 55 -62 55 -19 0 -5 -30 22 -50 17 -12 30 -26 30 -31
0 -13 -60 19 -66 34 -2 7 -43 42 -89 77 -46 35 -83 65 -82 67 5 5 258 -65 351
-97 108 -36 132 -37 224 -6 142 49 213 59 366 53 85 -3 165 -12 201 -22 62
-17 219 -90 234 -109 6 -8 -40 -12 -156 -14 -216 -3 -243 -18 -47 -26 211 -8
286 -24 419 -90 140 -70 339 -219 418 -312 127 -150 251 -364 302 -520 27 -83
50 -213 60 -336 6 -68 9 -78 26 -78 17 0 19 8 19 73 0 167 -60 394 -146 557
-170 319 -388 533 -694 679 -41 20 -110 60 -153 89 -95 65 -199 115 -287 139
-51 14 -103 18 -235 18 -160 0 -177 -2 -289 -33 -133 -36 -174 -39 -237 -16
-101 35 -288 85 -371 99 -100 16 -170 51 -199 99 -38 62 -27 91 96 261 74 102
83 124 149 363 68 241 156 511 180 546 24 37 94 86 124 86 39 0 81 -38 193
-177 154 -191 202 -243 221 -243 10 0 18 4 18 8 0 5 10 8 23 8 l22 -1 -3 180
c-1 99 -8 257 -14 352 -10 168 -10 173 12 217 25 54 123 132 176 142 45 8 82
-20 157 -120 32 -42 82 -110 113 -151 53 -71 65 -81 89 -75 6 1 16 3 23 4 23
4 30 21 55 136 27 122 40 203 57 365 6 55 15 114 21 131 21 66 108 117 351
204 153 54 242 107 231 136 -9 24 -189 179 -265 230 -39 25 -116 69 -172 95
-160 78 -169 84 -198 125 -35 51 -63 158 -54 207 4 23 54 107 131 223 141 210
193 310 230 439 85 296 117 788 96 1457 -14 451 -50 948 -70 970 -13 15 -117
-98 -200 -217 -123 -175 -190 -255 -330 -395 -137 -136 -351 -320 -445 -381
-33 -22 -71 -39 -87 -39 -33 0 -59 32 -59 73 0 104 158 542 254 704 19 32 31
62 26 66 -4 5 -47 4 -94 -2 -129 -16 -162 4 -154 89 4 39 22 78 83 182 103
176 185 302 314 481 133 184 138 194 125 207 -21 21 -602 -92 -1075 -210 -633
-159 -1079 -319 -1367 -492 -150 -90 -192 -77 -241 75 -39 124 -77 295 -97
447 -17 126 -25 571 -14 770 4 79 3 85 -15 87 -11 2 -51 -18 -90 -43z m38 -51
c-8 -21 -30 -67 -48 -103 -142 -285 -231 -604 -255 -915 -11 -151 -25 -762
-16 -754 3 3 10 160 16 350 11 385 21 505 55 694 32 175 65 282 129 428 70
158 156 335 156 322 0 -5 -7 -64 -15 -130 -17 -142 -19 -304 -5 -481 22 -276
59 -460 155 -750 l45 -137 -48 -56 c-180 -211 -358 -500 -479 -777 -32 -75
-61 -128 -64 -121 -4 7 -25 66 -47 132 -65 194 -130 525 -147 745 -5 59 -12
89 -23 97 -13 11 -14 25 -5 100 9 84 9 102 -2 91 -8 -8 -44 -234 -55 -347 -13
-129 -13 -351 0 -546 11 -168 18 -234 61 -589 29 -234 30 -253 16 -308 -8 -32
-11 -60 -7 -63 13 -8 16 0 64 157 153 492 386 973 626 1293 87 115 243 266
345 334 240 158 711 330 1334 486 101 25 185 44 187 43 2 -2 -38 -21 -89 -42
-186 -78 -455 -217 -582 -301 -171 -115 -248 -177 -375 -304 -262 -262 -425
-506 -550 -821 -57 -143 -161 -450 -152 -450 4 0 35 83 69 184 105 309 186
481 326 691 132 199 363 456 512 571 92 71 302 198 445 269 141 71 438 200
538 234 52 18 644 143 648 138 1 -1 -28 -28 -65 -61 -212 -188 -584 -577 -766
-801 -177 -218 -329 -455 -434 -677 -59 -124 -198 -473 -266 -668 -62 -181
-21 -95 65 135 225 600 381 878 728 1305 89 109 585 611 682 690 l55 45 -51
-65 c-168 -215 -422 -647 -573 -975 -215 -469 -395 -1021 -515 -1578 -28 -127
-31 -157 -17 -157 5 0 14 29 21 64 l12 64 103 66 c114 74 279 195 340 250 23
21 3 10 -48 -27 -93 -67 -368 -239 -374 -233 -5 5 55 262 82 351 l25 80 134
68 c299 152 571 332 816 540 321 273 463 435 639 728 46 76 51 81 51 52 0 -66
-80 -504 -124 -678 -25 -98 -44 -180 -42 -182 1 -2 22 61 44 139 44 149 69
264 107 483 28 161 31 150 45 -190 48 -1128 5 -1765 -140 -2055 -42 -83 -262
-409 -319 -473 -4 -4 -22 14 -41 40 -18 27 -65 90 -103 142 -59 78 -68 96 -59
111 113 181 306 580 289 597 -2 2 -19 -32 -36 -74 -58 -138 -273 -518 -290
-511 -4 2 -24 22 -46 46 l-38 43 29 34 c16 19 45 53 66 77 44 53 140 217 135
232 -2 6 -12 -5 -22 -24 -37 -72 -100 -157 -164 -222 -36 -38 -68 -68 -72 -68
-3 0 -27 18 -52 41 l-47 40 59 88 c97 144 195 356 240 520 l20 73 -23 -4 c-21
-4 -16 6 39 91 115 178 181 295 232 411 51 116 143 371 142 393 0 7 -22 -49
-48 -123 -112 -317 -205 -486 -431 -784 -58 -76 -119 -159 -136 -185 -39 -57
-133 -148 -242 -234 l-83 -66 -77 50 c-42 28 -78 54 -80 58 -1 4 23 30 55 57
137 116 288 262 360 347 111 133 344 447 330 447 -2 0 -50 -60 -105 -132 -55
-73 -130 -164 -166 -203 -59 -61 -67 -67 -63 -43 2 15 1 26 -2 24 -3 -2 -67
-41 -141 -87 -271 -166 -553 -287 -695 -299 -44 -4 -160 -24 -258 -45 -98 -21
-179 -36 -182 -34 -5 5 54 288 85 409 30 117 78 259 150 441 75 189 77 195 47
139 -42 -77 -175 -422 -211 -546 -18 -65 -50 -193 -71 -284 -20 -91 -39 -168
-41 -172 -3 -5 -13 -8 -22 -8 -10 0 -25 -9 -35 -20 -9 -11 -25 -20 -36 -20
-10 0 -77 21 -147 46 l-129 46 -107 -5 -107 -6 -8 37 c-10 49 -7 427 5 572 9
107 14 125 72 270 141 352 311 664 519 948 45 63 81 116 78 118 -7 7 -169
-211 -272 -365 -175 -263 -403 -779 -510 -1151 -26 -93 -87 -342 -120 -497 -4
-15 -34 -37 -101 -73 -53 -28 -98 -49 -100 -48 -5 5 108 469 160 660 55 198
102 329 201 561 41 94 72 173 70 175 -9 9 -121 -241 -212 -473 -33 -85 -79
-179 -117 -240 -72 -115 -202 -355 -269 -497 -43 -92 -74 -178 -98 -277 l-11
-45 -34 40 c-124 141 -158 211 -180 374 -20 156 -15 602 10 835 4 35 60 174
116 285 43 85 46 95 29 84 -29 -18 -165 -329 -239 -547 -43 -128 -110 -324
-149 -437 -84 -247 -121 -407 -128 -557 -6 -108 -7 -111 -32 -123 -68 -31
-230 -148 -307 -222 -104 -100 -180 -211 -243 -358 -27 -60 -54 -117 -62 -126
-12 -14 -27 -16 -104 -10 -86 6 -101 11 -305 99 -260 113 -426 181 -800 327
-509 200 -615 230 -797 230 -145 0 -433 -42 -433 -62 0 -5 10 -6 23 -3 12 3
60 9 106 13 64 6 79 6 67 -4 -9 -6 -16 -16 -16 -22 0 -6 -8 -12 -17 -14 -10
-2 52 -21 137 -42 347 -86 787 -267 1140 -468 89 -51 376 -224 389 -235 2 -1
-3 -11 -12 -20 -25 -28 -75 -142 -88 -200 -7 -29 -17 -53 -22 -53 -5 0 -93 27
-196 59 -260 83 -475 147 -562 166 -85 18 -429 33 -429 18 0 -5 6 -15 13 -22
6 -7 -12 -3 -42 9 -50 19 -77 20 -55 2 5 -5 99 -46 209 -92 400 -167 554 -239
891 -417 l162 -85 16 -105 c9 -58 23 -120 32 -139 9 -19 45 -57 81 -85 92 -73
67 -87 -28 -16 -118 86 -426 274 -435 264 -2 -2 45 -34 106 -71 61 -37 174
-115 251 -173 l141 -106 -6 -36 c-3 -20 -6 -68 -6 -108 0 -65 -2 -72 -22 -79
-13 -4 -122 -8 -243 -8 -170 -1 -219 -4 -218 -13 2 -7 -3 -13 -10 -13 -27 0
-193 72 -384 169 -112 55 -203 99 -203 97 0 -13 536 -284 675 -342 50 -20 171
-68 269 -105 l180 -68 22 -73 c12 -40 20 -75 19 -76 -7 -7 -306 78 -392 111
-126 49 -136 51 -63 16 73 -36 287 -115 400 -148 74 -22 76 -24 103 -74 26
-49 95 -127 162 -181 17 -13 44 -36 60 -50 l30 -26 -60 5 c-33 2 -127 7 -210
10 -82 3 -175 8 -205 11 -30 4 -52 3 -48 -1 9 -10 297 -43 442 -50 67 -4 127
-8 134 -11 9 -2 -6 -26 -43 -67 l-55 -63 -113 3 c-164 5 -292 20 -379 43 -42
11 -233 78 -425 149 -421 156 -475 173 -677 214 l-158 33 133 42 c224 69 348
92 505 92 67 0 83 -5 235 -71 90 -39 223 -91 294 -115 72 -23 126 -43 120 -43
-5 -1 -91 10 -189 24 -99 14 -186 25 -194 25 -46 0 20 -12 263 -50 149 -22
316 -52 373 -67 91 -22 127 -25 110 -8 -3 3 -108 36 -234 74 -256 77 -297 92
-506 184 -492 218 -579 285 -1133 882 -128 138 -273 293 -321 344 -49 52 -82
91 -74 86 8 -4 74 -45 145 -90 153 -97 404 -244 466 -274 57 -28 39 -15 -107
72 -147 88 -514 320 -511 324 1 1 61 -16 132 -38 232 -70 492 -115 726 -126
l141 -6 151 -114 c84 -63 157 -119 162 -125 12 -11 -87 25 -333 122 -101 40
-186 70 -189 67 -4 -5 60 -37 74 -37 2 0 120 -46 261 -102 212 -84 270 -111
330 -156 134 -98 85 -47 -80 85 -399 318 -698 537 -892 655 -335 203 -771 398
-1283 574 -78 27 -139 51 -137 54 3 3 99 12 212 21 147 12 184 17 127 18 -44
0 -143 -4 -219 -9 -77 -6 -141 -9 -143 -6 -2 2 27 23 64 46 631 399 843 518
1098 618 218 85 291 103 445 109 104 4 151 1 204 -11 73 -17 368 -125 496
-181 41 -18 135 -58 208 -89 73 -32 213 -95 311 -142 98 -46 183 -84 188 -84
6 0 23 34 37 76 123 345 289 556 603 767 67 45 122 85 123 88 0 4 -8 9 -18 11
-18 5 -66 164 -146 493 -54 225 -88 462 -85 610 l1 60 14 -80 c43 -242 108
-465 220 -748 42 -107 77 -212 80 -243 10 -85 27 -66 21 24 -26 369 -29 457
-24 812 5 392 14 504 61 775 44 252 134 484 264 680 77 118 250 323 382 456
106 106 319 298 332 299 4 0 0 -17 -9 -37z m2533 -1581 c-3 -5 -20 -31 -39
-59 -78 -116 -168 -369 -247 -696 l-53 -217 -56 -34 c-31 -19 -122 -68 -204
-110 -144 -74 -147 -75 -141 -48 23 96 219 445 336 595 17 20 27 37 24 37 -15
0 -179 -220 -226 -305 -30 -52 -55 -93 -57 -91 -11 11 196 554 281 738 35 76
36 78 106 113 95 48 292 102 276 77z m-5531 -800 c428 -491 556 -625 768 -806
107 -92 424 -345 507 -406 l24 -18 -33 -63 c-19 -35 -37 -68 -42 -73 -12 -14
-311 223 -594 472 -160 141 -213 177 -118 79 46 -46 52 -57 55 -104 9 -110
159 -298 428 -536 74 -66 139 -123 144 -128 5 -4 6 -19 2 -33 l-6 -25 -133 63
c-72 35 -181 86 -242 114 -138 63 -406 195 -382 188 9 -3 17 -3 17 0 0 16
-277 294 -288 289 -8 -3 -21 12 -34 43 -24 55 -26 57 -34 49 -10 -9 61 -185
100 -250 19 -31 31 -57 27 -57 -4 0 -39 11 -77 23 -38 13 -103 32 -144 42 -41
10 -76 19 -78 20 -4 4 -72 321 -97 460 -48 256 -76 590 -74 870 l1 100 37
-115 c47 -144 142 -402 147 -397 2 2 -34 118 -81 257 -47 140 -85 257 -85 260
0 7 20 -15 285 -318z m4895 -1173 c113 -31 269 -117 430 -238 279 -209 412
-343 571 -577 102 -151 111 -174 161 -409 33 -149 33 -153 33 -425 0 -233 -4
-305 -25 -470 -27 -215 -28 -215 -49 4 -20 208 -80 451 -164 664 -47 121 -205
447 -212 440 -3 -3 35 -88 85 -190 172 -354 259 -688 289 -1103 5 -66 5 -126
2 -133 -5 -8 -30 25 -71 93 -135 224 -298 401 -480 524 -52 35 -97 66 -99 67
-4 3 -40 220 -41 242 0 17 44 -6 144 -75 43 -30 77 -51 75 -45 -7 17 -98 88
-164 127 l-63 36 -21 113 c-12 62 -21 118 -21 125 0 13 113 -42 231 -112 103
-61 143 -81 135 -68 -4 6 -4 11 1 11 15 -1 72 -94 121 -200 60 -126 118 -298
162 -477 18 -73 36 -133 40 -133 14 0 -44 229 -107 425 -80 250 -265 569 -436
751 -79 85 -241 224 -260 224 -9 0 -19 4 -22 10 -3 5 -38 29 -78 52 -50 29
-102 73 -170 144 -53 56 -134 133 -180 170 -45 37 -86 72 -92 76 -5 5 22 -3
60 -18 39 -15 141 -51 228 -80 237 -79 474 -216 570 -328 27 -31 53 -56 58
-56 6 0 -23 39 -64 88 -40 48 -86 110 -102 137 -39 69 -112 172 -158 223 -22
23 -36 42 -31 42 5 0 60 -43 122 -95 117 -99 151 -121 91 -59 -108 113 -317
271 -487 369 -82 47 -282 134 -312 136 -10 0 -8 3 5 9 41 17 217 11 295 -11z
m-964 -53 c110 -37 340 -142 454 -207 216 -123 422 -294 562 -468 74 -92 203
-287 234 -356 46 -99 118 -472 159 -820 23 -197 87 -966 81 -973 -2 -1 -20 64
-41 145 -84 333 -277 764 -471 1055 -97 146 -269 377 -328 443 -20 22 35 -55
121 -172 192 -257 262 -367 373 -588 137 -272 244 -560 315 -849 20 -82 34
-150 32 -153 -3 -2 -19 34 -37 79 -133 333 -265 603 -428 873 -198 329 -346
540 -515 732 -133 152 -358 385 -365 379 -3 -3 44 -58 104 -121 305 -325 437
-494 692 -887 122 -190 236 -393 307 -546 82 -181 176 -404 172 -408 -2 -3
-42 46 -89 109 -177 235 -353 427 -607 662 -493 456 -867 717 -1171 815 -129
42 -212 49 -273 22 -52 -23 -54 -26 -65 -152 l-7 -85 -29 49 c-54 93 -138 268
-143 301 -7 43 25 98 68 115 70 29 352 -7 539 -70 157 -52 364 -167 553 -307
114 -85 403 -366 517 -502 41 -49 77 -88 79 -86 2 3 -41 57 -95 122 -153 184
-360 384 -519 502 -178 133 -174 129 -155 141 12 8 12 15 -7 52 -46 95 -217
285 -355 395 -217 173 -415 251 -561 223 -91 -17 -165 -53 -178 -87 -7 -16
-12 -87 -12 -168 l0 -140 -19 75 c-12 46 -20 116 -21 180 -2 121 4 137 80 219
39 42 61 56 118 76 105 36 204 48 335 42 175 -9 296 -40 510 -132 45 -19 84
-35 86 -35 15 0 -12 22 -43 35 -19 8 -74 52 -122 97 -97 92 -187 155 -237 164
-19 3 -32 10 -29 14 13 21 187 -36 350 -115 201 -98 404 -236 655 -443 97 -80
110 -89 60 -40 -296 288 -749 568 -1006 622 -38 8 -114 18 -169 22 l-99 7 97
48 c234 116 398 145 543 95z m-1425 -892 c30 -9 79 -31 109 -49 62 -38 198
-135 189 -135 -4 0 -44 18 -90 39 -103 48 -248 85 -295 76 -40 -7 -90 -55
-127 -122 -57 -105 -108 -364 -93 -467 8 -50 156 -359 163 -339 2 6 -8 35 -23
65 -25 48 -28 63 -28 163 1 129 1 129 104 255 80 97 88 99 89 18 1 -20 6 -60
12 -87 9 -41 16 -53 41 -66 17 -8 32 -14 33 -13 1 2 13 35 25 73 58 177 93
221 168 211 78 -10 170 -63 244 -138 38 -39 67 -72 64 -75 -3 -3 -47 9 -99 26
-73 24 -100 29 -119 22 -34 -13 -83 -93 -121 -198 -26 -73 -31 -103 -31 -178
-1 -85 3 -100 62 -275 35 -102 104 -275 153 -385 50 -110 93 -207 96 -215 11
-25 -144 160 -210 252 -51 73 -156 242 -312 507 -14 24 -28 41 -31 38 -7 -7
253 -459 320 -556 28 -41 95 -127 150 -190 54 -64 83 -102 65 -85 -105 95
-580 548 -615 585 -45 49 -117 155 -183 267 -24 39 -47 72 -52 72 -5 0 14 -39
43 -87 122 -209 147 -240 400 -483 134 -128 270 -260 303 -292 l60 -60 -195
123 c-501 313 -888 569 -937 617 -39 39 -51 89 -65 262 -14 173 1 412 32 527
30 113 56 153 118 186 30 16 55 27 57 25 1 -1 -6 -37 -16 -78 -50 -195 -64
-530 -26 -610 l17 -35 -8 35 c-4 19 -7 118 -7 220 1 204 17 314 61 426 l26 63
76 25 c168 56 303 69 403 40z m-1097 -272 c-130 -128 -190 -232 -231 -396 -25
-105 -14 -152 79 -334 88 -172 86 -168 94 -160 3 3 -8 35 -24 71 -24 52 -27
67 -16 71 10 4 14 24 14 70 0 83 16 156 50 231 30 66 127 200 187 256 43 41
172 139 183 139 4 0 4 -19 0 -42 -5 -24 -11 -95 -15 -158 -5 -91 -14 -138 -41
-223 -38 -119 -74 -310 -74 -390 0 -71 13 -112 57 -179 46 -69 193 -241 201
-234 2 3 -27 43 -65 88 -39 46 -92 116 -119 157 -49 73 -49 75 -49 155 0 77 2
84 40 145 23 36 46 66 51 68 7 2 14 -18 17 -46 11 -96 37 -127 195 -232 l102
-69 0 -68 c1 -129 41 -251 135 -412 l26 -45 -37 40 c-139 151 -199 241 -318
473 -48 95 -91 172 -97 172 -5 0 38 -93 95 -207 108 -216 173 -313 291 -441
37 -39 63 -72 59 -72 -18 0 -559 275 -696 354 -185 105 -362 222 -410 269 -49
49 -68 134 -75 337 -6 176 8 288 54 411 22 63 37 84 98 144 100 98 207 151
309 154 26 1 21 -6 -70 -97z m4841 -26 c99 -49 244 -142 348 -225 37 -30 66
-55 64 -57 -1 -1 -42 9 -92 22 -93 24 -231 31 -342 18 -94 -12 -56 -19 75 -16
124 4 227 -8 337 -39 l40 -11 -190 -63 c-104 -34 -225 -79 -269 -99 -43 -20
-81 -36 -83 -36 -3 0 -2 33 1 73 8 81 -7 271 -29 391 -8 43 -15 83 -15 88 0
18 61 0 155 -46z m-775 -706 c0 -4 -17 -16 -39 -28 l-39 -22 -6 33 c-9 45 16
63 55 40 16 -10 29 -20 29 -23z m96 -67 c35 -27 63 -50 63 -53 0 -3 -30 -26
-67 -52 -37 -25 -86 -60 -109 -77 l-41 -32 -6 68 c-4 38 -8 82 -11 100 -3 30
0 35 48 62 29 17 54 31 56 31 3 0 33 -21 67 -47z m-1277 -130 c96 -57 231
-153 231 -166 0 -14 -244 -447 -252 -447 -5 0 -8 9 -8 20 0 11 -4 20 -10 20
-6 0 -10 -43 -10 -107 0 -124 -15 -162 -70 -182 l-32 -11 7 59 c7 60 0 105
-14 96 -5 -2 -11 -32 -15 -66 -9 -90 -23 -106 -91 -111 -30 -1 -55 -2 -55 0 0
1 8 19 19 40 10 20 22 57 25 82 4 25 9 57 12 73 9 43 -13 31 -28 -15 l-13 -43
-70 1 c-39 0 -106 11 -152 23 l-82 23 -79 136 c-118 204 -165 292 -159 299 3
3 103 -45 221 -106 119 -61 219 -111 224 -111 18 0 4 88 -31 190 -20 57 -34
106 -32 108 2 2 60 -34 128 -81 69 -47 131 -85 138 -83 70 12 74 28 65 263
l-7 174 32 -16 c17 -9 66 -37 108 -62z m420 -94 c1 -4 -41 -64 -93 -133 -52
-70 -150 -206 -217 -302 -67 -96 -123 -173 -125 -171 -6 6 202 391 288 535
l80 132 33 -27 c19 -16 34 -31 34 -34z m-9 -206 c-23 -87 -49 -184 -57 -215
-15 -55 -18 -59 -142 -160 -150 -123 -207 -168 -214 -168 -3 0 -7 7 -11 15 -4
11 11 23 53 44 99 51 135 109 151 248 6 59 16 93 32 116 53 76 221 288 225
283 2 -2 -14 -75 -37 -163z m-3407 84 c26 -17 47 -33 47 -38 0 -4 -7 -36 -16
-71 -20 -78 -13 -221 13 -250 21 -24 75 -33 115 -19 49 17 148 79 189 118 28
27 42 33 58 28 20 -6 19 -8 -16 -34 -53 -38 -93 -88 -93 -115 0 -13 9 -49 21
-82 18 -52 20 -73 14 -171 -6 -110 -6 -112 22 -154 22 -33 44 -50 101 -76 91
-43 150 -50 222 -29 60 17 82 14 161 -23 82 -39 140 -125 125 -185 -8 -32 -22
-36 -159 -47 -171 -14 -233 5 -450 137 -212 129 -336 247 -386 367 -83 201
-127 563 -82 681 11 28 11 28 39 10 15 -10 48 -31 75 -47z m1154 -134 c49 -30
81 -58 78 -65 -20 -60 -45 -153 -45 -166 0 -30 17 2 40 73 12 39 26 74 31 80
5 5 -7 -38 -26 -95 -36 -106 -38 -130 -10 -130 8 0 67 -39 130 -86 64 -47 149
-101 190 -120 41 -19 82 -45 90 -58 15 -22 22 -23 188 -29 166 -6 526 -39 557
-51 16 -7 44 -45 38 -52 -3 -2 -36 3 -74 11 -97 22 -440 35 -598 24 -123 -9
-277 -38 -314 -58 -13 -8 -8 -11 23 -16 31 -5 41 -12 42 -27 1 -11 9 -31 18
-44 l16 -24 23 27 c23 26 25 27 66 14 24 -7 120 -48 214 -90 205 -93 260 -113
295 -104 47 11 200 113 276 184 49 45 83 69 99 69 26 0 42 15 48 45 4 25 43
45 89 45 42 0 56 -14 153 -146 71 -99 96 -117 189 -135 50 -10 56 -14 75 -55
19 -39 20 -45 6 -59 -9 -8 -16 -15 -17 -15 -2 0 -67 9 -146 20 -80 11 -148 17
-153 12 -7 -7 124 -116 156 -128 9 -3 16 -21 18 -42 l3 -37 48 46 c33 32 47
53 47 72 0 23 4 27 27 27 34 0 63 26 63 58 0 13 -15 50 -34 81 -100 167 -137
243 -131 272 8 35 13 35 103 5 107 -37 154 -37 177 -3 8 13 38 80 66 148 36
90 59 131 82 151 40 34 24 36 -26 3 -20 -14 -41 -24 -46 -21 -4 3 -26 -7 -47
-22 -21 -15 -43 -27 -49 -27 -5 0 -30 -12 -55 -26 -54 -32 -90 -44 -90 -31 0
6 4 12 10 14 5 2 73 55 149 118 124 102 142 120 156 163 9 26 21 44 26 41 18
-11 76 6 114 32 21 14 38 24 40 22 1 -2 -31 -97 -72 -213 -40 -115 -103 -316
-139 -445 -37 -129 -73 -247 -80 -262 -8 -15 -96 -136 -197 -270 -101 -134
-204 -277 -230 -319 -51 -82 -85 -111 -182 -155 -159 -73 -422 -30 -844 140
-183 74 -498 220 -525 244 -11 10 -84 92 -163 184 l-144 168 16 29 c8 17 15
43 15 58 0 36 -41 122 -71 150 -30 27 -138 81 -179 90 -33 6 -52 34 -64 90 -4
17 -13 37 -21 43 -10 9 -9 27 10 103 13 51 26 111 30 135 l7 42 51 0 c36 0 76
-10 129 -32 43 -17 81 -28 85 -24 4 4 -19 59 -50 123 -32 63 -56 117 -54 119
2 2 57 -21 123 -51 94 -44 120 -52 122 -40 3 12 -43 165 -76 254 -6 16 -10 19
105 -56z m2508 -69 c-74 -64 -77 -63 -48 22 l26 76 31 -32 31 -31 -40 -35z
m-2210 -119 c61 -37 124 -76 140 -86 l30 -19 -30 5 c-66 11 -228 25 -285 25
-33 0 -60 3 -60 8 0 6 34 119 45 151 4 11 9 11 28 -1 12 -8 72 -46 132 -83z
m470 -59 c83 -26 242 -78 355 -116 214 -73 309 -94 372 -84 21 4 38 2 38 -2 0
-12 -30 -56 -44 -66 -14 -10 -65 -1 -141 22 -85 27 -470 124 -595 150 l-105
22 -28 65 c-15 38 -22 63 -14 60 6 -2 80 -25 162 -51z m1215 -31 c0 -24 -9
-45 -29 -68 -32 -36 -96 -75 -106 -65 -10 10 27 59 51 68 16 6 25 21 30 45 7
39 30 69 45 60 5 -4 9 -22 9 -40z m-1504 -51 c21 -4 39 -21 65 -64 47 -74 91
-106 172 -126 88 -22 159 -9 227 41 26 19 53 35 60 35 7 0 72 -16 146 -37
l133 -36 -15 -26 c-41 -69 -19 -65 -251 -42 -114 12 -273 23 -353 25 l-145 3
-67 109 c-37 60 -67 112 -67 117 -1 9 55 9 95 1z m262 -57 c6 -5 12 -18 12
-29 0 -17 5 -19 33 -14 26 5 40 1 60 -15 56 -43 22 -65 -88 -56 -61 4 -143 39
-160 68 -10 16 15 39 42 39 13 0 26 7 29 15 6 16 47 11 72 -8z m-1591 -631 c1
-1 -16 -51 -38 -111 -52 -141 -103 -325 -136 -495 -24 -121 -27 -160 -28 -377
-1 -208 -4 -245 -19 -267 -9 -14 -21 -26 -26 -26 -29 0 -131 188 -169 314
l-21 69 25 90 c61 210 258 696 323 795 13 20 21 23 51 17 20 -4 37 -8 38 -9z
m-295 -363 c-11 -21 -124 -363 -147 -444 -14 -50 -23 -62 -78 -105 -34 -27
-67 -48 -73 -46 -16 3 -187 -196 -181 -212 5 -14 -52 -216 -71 -253 -14 -25
-22 -28 -112 -43 -149 -25 -360 -106 -418 -161 -16 -14 -36 -19 -81 -19 -33 0
-63 4 -66 10 -9 15 30 96 76 160 23 30 93 106 157 168 108 105 113 112 67 86
-123 -68 -226 -145 -328 -246 -60 -59 -115 -108 -123 -108 -28 0 -144 25 -144
31 0 3 11 11 25 17 13 6 78 52 142 101 146 110 286 198 423 267 120 60 146 84
250 234 88 125 307 348 425 431 87 62 256 161 263 155 2 -2 -1 -13 -6 -23z
m3100 -101 c45 -27 112 -65 148 -85 36 -20 92 -56 126 -80 55 -41 63 -51 93
-128 31 -76 34 -97 40 -222 3 -76 4 -140 2 -143 -9 -8 -127 85 -186 148 -44
46 -77 94 -105 152 -43 89 -91 141 -228 249 -37 29 -59 54 -55 60 19 34 67 97
74 97 4 0 45 -22 91 -48z m-1881 -287 c146 -247 182 -287 444 -496 308 -246
465 -358 690 -494 11 -7 -73 -10 -267 -11 -197 -1 -327 -6 -426 -18 -79 -10
-145 -16 -146 -14 -1 2 -15 37 -30 78 -44 116 -151 328 -206 405 -164 230
-163 227 -195 540 -14 134 -25 252 -25 262 0 21 -5 30 161 -252z m1697 69 c15
-50 144 -284 157 -284 5 0 20 -15 31 -33 12 -18 47 -63 78 -99 51 -61 58 -75
86 -178 38 -140 41 -145 101 -200 l50 -45 -86 -100 c-94 -108 -166 -204 -186
-247 -7 -16 -16 -28 -20 -28 -15 0 -100 284 -123 413 -22 118 -53 356 -72 540
-3 37 -10 67 -15 67 -5 0 -9 -1 -9 -2 0 -2 11 -103 25 -226 26 -237 30 -312
16 -312 -4 0 -30 -54 -56 -120 -26 -66 -53 -127 -59 -135 -10 -14 -20 -11 -76
27 -36 24 -69 46 -75 50 -6 5 -5 16 4 30 8 13 34 67 57 122 l43 98 -6 99 c-3
55 -10 99 -15 99 -4 0 -8 -40 -8 -89 0 -99 -9 -134 -43 -162 -35 -29 -52 -23
-119 40 l-63 60 32 29 c18 17 55 65 84 109 66 100 213 396 230 462 7 28 16 51
19 51 4 0 12 -16 18 -36z"/>
<path d="M7209 6223 c-13 -16 -12 -17 4 -4 9 7 17 15 17 17 0 8 -8 3 -21 -13z"/>
<path d="M1005 4870 c261 -20 384 -43 635 -116 237 -70 648 -220 1048 -383 67
-27 122 -46 122 -42 0 9 -114 58 -315 136 -552 215 -983 356 -1190 391 -49 8
-162 17 -250 19 -151 3 -154 3 -50 -5z"/>
<path d="M2239 3370 c67 -34 128 -59 134 -57 9 3 -206 104 -243 113 -8 2 41
-23 109 -56z"/>
<path d="M2610 2855 c25 -13 50 -24 55 -24 6 0 -10 11 -35 24 -25 13 -49 24
-55 24 -5 0 10 -11 35 -24z"/>
<path d="M2710 2810 c19 -11 40 -19 45 -19 6 0 -6 8 -25 19 -19 11 -39 19 -45
19 -5 0 6 -8 25 -19z"/>
<path d="M2010 6457 c0 -18 93 -189 150 -277 68 -104 198 -280 207 -280 3 0
-16 28 -41 63 -100 136 -218 317 -265 407 -28 52 -51 92 -51 87z"/>
<path d="M4030 3855 c0 -5 5 -17 10 -25 5 -8 10 -10 10 -5 0 6 -5 17 -10 25
-5 8 -10 11 -10 5z"/>
<path d="M4540 2973 c-12 -54 -23 -104 -25 -110 -3 -7 0 -13 5 -13 9 0 12 10
44 136 18 72 19 84 7 84 -5 0 -19 -44 -31 -97z"/>
<path d="M6210 1970 c-8 -5 -71 -10 -140 -10 -130 0 -170 -11 -170 -46 0 -18
14 -18 30 1 10 12 39 15 139 15 98 0 132 3 149 16 34 24 27 47 -8 24z"/>
<path d="M6179 1801 c-24 -16 -47 -27 -52 -24 -4 2 -15 -1 -23 -8 -10 -8 -33
-10 -74 -6 l-60 7 -16 -38 c-16 -39 -15 -57 8 -132 19 -62 50 -110 71 -110 33
0 103 84 147 176 23 49 43 99 43 111 1 13 8 25 15 28 16 6 15 25 -1 25 -8 0
-34 -13 -58 -29z"/>
<path d="M7950 991 c-14 -5 -20 -9 -14 -10 16 -1 4 -51 -12 -51 -38 0 -2 -25
120 -83 196 -95 265 -143 399 -279 93 -94 118 -125 113 -141 -3 -14 9 -38 41
-79 69 -90 145 -216 173 -286 l25 -62 67 0 68 0 0 41 c0 66 -29 248 -51 324
-27 92 -87 211 -142 283 -165 213 -403 338 -662 348 -55 2 -111 -1 -125 -5z"/>
<path d="M8050 722 c0 -4 34 -29 76 -56 41 -26 73 -50 71 -53 -3 -2 -32 3 -65
11 -69 18 -82 19 -82 7 0 -5 30 -16 67 -25 109 -28 212 -72 316 -135 54 -33
97 -55 94 -48 -2 7 -52 42 -112 80 -60 37 -111 71 -114 75 -28 37 -251 165
-251 144z"/>
<path d="M7880 632 c0 -9 97 -42 123 -42 10 0 14 -5 11 -15 -4 -8 -4 -15 -1
-15 3 0 55 -22 116 -50 61 -27 111 -45 111 -41 0 10 -83 55 -158 86 -78 33
-33 32 78 0 108 -32 190 -71 296 -140 46 -30 84 -50 84 -45 0 14 -147 108
-240 155 -98 49 -420 131 -420 107z"/>
<path d="M7419 345 c-250 -41 -413 -121 -569 -279 l-64 -66 717 0 c394 0 717
3 717 8 0 4 -26 36 -57 71 -69 77 -186 172 -255 207 -120 61 -327 86 -489 59z"/>
<path d="M1425 267 c-96 -51 -299 -267 -251 -267 8 0 35 26 60 58 58 75 137
150 210 201 71 49 63 52 -19 8z"/>
<path d="M6660 25 l-23 -25 26 0 c22 0 27 5 27 25 0 14 -1 25 -3 25 -2 0 -14
-11 -27 -25z"/>
</g>
</svg>
